<svg class="Logostyle__LogoStyled-sc-1im8go-0 ivkIhW" data-key="max-logo" viewBox="0 0 156.78 34.05" xmlns="http://www.w3.org/2000/svg"><path d="M149,5.09a3.47,3.47,0,1,1,6.93,0,3.47,3.47,0,1,1-6.93,0m3.47,4.32a4.28,4.28,0,0,0,4.32-4.32,4.33,4.33,0,0,0-8.66,0,4.29,4.29,0,0,0,4.34,4.32m-.9-4h.86l1.3,2.16h.84L153.15,5.4A1.3,1.3,0,0,0,154.43,4c0-1-.58-1.42-1.74-1.42h-1.87v5h.74Zm0-.64V3.25h1c.52,0,1.07.11,1.07.73s-.57.81-1.2.81Z" fill="#004FEF"></path><polygon points="143.79 26.05 143.79 34.05 121.48 34.05 129.61 19.76 121.48 19.76 121.48 11.71 143.79 11.71 135.34 26.04" fill="#004FEF"></polygon><polygon points="119 19.66 115.54 19.67 115.54 34.05 104.74 34.05 104.74 19.66 101.65 19.66 101.65 11.55 104.74 11.55 104.74 3.02 115.54 3.02 115.54 11.55 118.98 11.55" fill="#004FEF"></polygon><path d="M90.46,8.7A5.1,5.1,0,0,1,94.07,0a5,5,0,0,1,3.59,1.5,5,5,0,0,1,1.5,3.6,5.09,5.09,0,0,1-8.7,3.6" fill="#004FEF"></path><polygon points="99.17 34.05 99.16 34.05 89.25 34.05 89.25 11.71 99.16 11.71 99.17 11.71" fill="#004FEF"></polygon><polygon points="86.77 34.05 86.77 0.54 76.86 0.54 76.86 34.04" fill="#004FEF"></polygon><path d="M38.67,20.13c0-1.89,1.1-3.15,2.76-3.15a2.83,2.83,0,0,1,2,.81,3.29,3.29,0,0,1,1,2.34v.3H38.67Zm15.84,4.25a10.84,10.84,0,0,0-3-8.68,14.09,14.09,0,0,0-10.39-4,13.19,13.19,0,0,0-9.34,3.5,11,11,0,0,0-3.23,8,9.73,9.73,0,0,0,2.88,7.22c2.38,2.32,6,3.6,10.33,3.6,5,0,10.81-2,12.21-7.13H44a2.22,2.22,0,0,1-2.41,1.82,2.62,2.62,0,0,1-1.93-.7,4.72,4.72,0,0,1-.95-3.36v-.3Z" fill="#004FEF"></path><path d="M12.55,21.25H11.06v5.86h1.57c1.24,0,3.11,0,4.12-1a2.66,2.66,0,0,0,.7-1.92,2.58,2.58,0,0,0-.69-1.88c-1-1-2.86-1-4.21-1m-.16-6.06a4.34,4.34,0,0,0,3.15-.85,2.51,2.51,0,0,0,.63-1.81,2.4,2.4,0,0,0-.6-1.74c-.74-.76-2-.76-3.12-.75H11.06v5.15ZM0,34.05V3H14C18.75,3,22,4,23.84,5.88a7.73,7.73,0,0,1,2,5.6c0,2.94-1.52,5.33-3.86,6.09a8,8,0,0,1-1.37.39L22,18.4c2.42.87,5.3,2.84,5.3,7.23,0,6.21-5.69,8.42-11,8.42Z" fill="#004FEF"></path><path d="M74.37,19.78H71.44c-3,0-4.44,3-4.44,5.78v8.48H57V11.71H66.9V16c1.11-3.18,3.83-4.32,7.47-4.23h0Z" fill="#004FEF"></path></svg>